HIERARCHY
ROOT Elbow
{
	OFFSET	0.00	0.00	0.00
	CHANNELS 6 Xposition Yposition Zposition Zrotation Xrotation Yrotation
	JOINT L_Wrist
	{
		OFFSET	 0.208349	 0.000000	 0.000000
		CHANNELS 3 Zrotation Xrotation Yrotation
		JOINT L_index_Proximal
		{
			OFFSET	 0.093499	 0.010637	-0.002084
			CHANNELS 3 Zrotation Xrotation Yrotation
			JOINT L_index_b
			{
				OFFSET	 0.033152	 0.000000	 0.000000
				CHANNELS 3 Zrotation Xrotation Yrotation
				JOINT L_index_c
				{
					OFFSET	 0.018651	 0.000000	 0.000000
					CHANNELS 3 Zrotation Xrotation Yrotation
					End Site
					{
						OFFSET	 0.018651	 0.000000	 0.000000
					}
				}
			}
		}
		JOINT L_middle_Proximal
		{
			OFFSET	 0.090632	-0.006115	-0.003750
			CHANNELS 3 Zrotation Xrotation Yrotation
			JOINT L_middle_b
			{
				OFFSET	 0.037195	 0.000000	 0.000000
				CHANNELS 3 Zrotation Xrotation Yrotation
				JOINT L_middle_c
				{
					OFFSET	 0.021943	 0.000000	 0.000000
					CHANNELS 3 Zrotation Xrotation Yrotation
					End Site
					{
						OFFSET	 0.021943	 0.000000	 0.000000
					}
				}
			}
		}
		JOINT L_pinky_Proximal
		{
			OFFSET	 0.074015	-0.035449	-0.000417
			CHANNELS 3 Zrotation Xrotation Yrotation
			JOINT L_pinky_b
			{
				OFFSET	 0.027285	 0.000000	 0.000000
				CHANNELS 3 Zrotation Xrotation Yrotation
				JOINT L_pinky_c
				{
					OFFSET	 0.015093	 0.000000	 0.000000
					CHANNELS 3 Zrotation Xrotation Yrotation
					End Site
					{
						OFFSET	 0.015093	 0.000000	 0.000000
					}
				}
			}
		}
		JOINT L_ring_Proximal
		{
			OFFSET	 0.082801	-0.021859	-0.003750
			CHANNELS 3 Zrotation Xrotation Yrotation
			JOINT L_ring_b
			{
				OFFSET	 0.034478	 0.000000	 0.000000
				CHANNELS 3 Zrotation Xrotation Yrotation
				JOINT L_ring_c
				{
					OFFSET	 0.021377	 0.000000	 0.000000
					CHANNELS 3 Zrotation Xrotation Yrotation
					End Site
					{
						OFFSET	 0.021377	 0.000000	 0.000000
					}
				}
			}
		}
		JOINT L_thumb_Proximal
		{
			OFFSET	 0.030306	 0.018528	 0.004584
			CHANNELS 3 Zrotation Xrotation Yrotation
			JOINT L_thumb_a
			{
				OFFSET	 0.038520	 0.000000	 0.000000
				CHANNELS 3 Zrotation Xrotation Yrotation
				JOINT L_thumb_b
				{
					OFFSET	 0.026310	 0.000000	 0.000000
					CHANNELS 3 Zrotation Xrotation Yrotation
					End Site
					{
						OFFSET	 0.026310	 0.000000	 0.000000
					}
				}
			}
		}
	}
}
MOTION
Frames:    12
Frame Time: 0.01666667
 0.527525	 0.005524	 0.746696	-80.783570	 38.580000	-178.251900	 11.555630	-0.837577	-4.755925	 0.608051	-0.186761	-13.891800	 2.111238	-0.300149	-16.181250	 0.400428	-0.030203	-8.627032	-13.618020	-5.590214	-64.116290	-0.437608	 0.314071	-71.334070	 2.869128	-1.075185	-41.079360	-34.271480	-16.051170	-51.203250	-1.865154	 0.996927	-56.245930	 2.291903	-1.122587	-52.186910	-19.806980	-10.763440	-59.539970	-0.415434	 0.280207	-67.998190	 4.789165	-1.874153	-42.724850	 56.143450	 47.791230	-66.623270	 0.885203	-0.148629	-19.062680	-1.973242	 0.507784	-28.859260
 0.527855	 0.005297	 0.746817	-80.697650	 38.589500	-178.328900	 11.581780	-0.835766	-4.745637	 0.723578	-0.209719	-13.898170	 2.120654	-0.300543	-16.131260	 0.436102	-0.032843	-8.611179	-13.677190	-5.542488	-64.193750	-0.529646	 0.381298	-71.501520	 2.804800	-1.051891	-41.108890	-34.300950	-16.030970	-51.262450	-1.952568	 1.044031	-56.263190	 2.231443	-1.094277	-52.240970	-19.844940	-10.736830	-59.640540	-0.521785	 0.352476	-68.079160	 4.703731	-1.845340	-42.822960	 55.938560	 47.903150	-66.614720	 0.871783	-0.147064	-19.150580	-1.889370	 0.486703	-28.888820
 0.527978	 0.005275	 0.746912	-80.686160	 38.584950	-178.346600	 11.596140	-0.835174	-4.742274	 0.745224	-0.213970	-13.893900	 2.122512	-0.301141	-16.148500	 0.446864	-0.033633	-8.608794	-13.699260	-5.524436	-64.226750	-0.554501	 0.399629	-71.560830	 2.806657	-1.052349	-41.100130	-34.310740	-16.023390	-51.293250	-1.972638	 1.054974	-56.272250	 2.211186	-1.085080	-52.271850	-19.861020	-10.725450	-59.689380	-0.565317	 0.382279	-68.133930	 4.664654	-1.831574	-42.856720	 55.906480	 47.913150	-66.633510	 0.868407	-0.146822	-19.191380	-1.887913	 0.487225	-28.939280
 0.528066	 0.005162	 0.747099	-80.660640	 38.557220	-178.362400	 11.614100	-0.831774	-4.722931	 0.780196	-0.220806	-13.883910	 2.111646	-0.298751	-16.103550	 0.451824	-0.033838	-8.566220	-13.724130	-5.504094	-64.263510	-0.595036	 0.429299	-71.619590	 2.786183	-1.044804	-41.105270	-34.331860	-16.008870	-51.335710	-1.997372	 1.068503	-56.286150	 2.188595	-1.074602	-52.298030	-19.890900	-10.704650	-59.750770	-0.621715	 0.420933	-68.200620	 4.635005	-1.820673	-42.872660	 55.884460	 47.922970	-66.638460	 0.881909	-0.149227	-19.205830	-1.879226	 0.485126	-28.947520
 0.528212	 0.005251	 0.747175	-80.649500	 38.565080	-178.385700	 11.619870	-0.830630	-4.716383	 0.854827	-0.235487	-13.874290	 2.148574	-0.302519	-16.027360	 0.487132	-0.036292	-8.520708	-13.749540	-5.484773	-64.274280	-0.615148	 0.443926	-71.632450	 2.780927	-1.043000	-41.111400	-34.351290	-15.996320	-51.364020	-2.034146	 1.088025	-56.279600	 2.158998	-1.060292	-52.307700	-19.924350	-10.681470	-59.807030	-0.654141	 0.442993	-68.213140	 4.616490	-1.813149	-42.867450	 55.841230	 47.937400	-66.661200	 0.886133	-0.150092	-19.226030	-1.855881	 0.478882	-28.934840
 0.528413	 0.005408	 0.747160	-80.645980	 38.724790	-178.434200	 11.656150	-0.830472	-4.715490	 1.237543	-0.312206	-13.938170	 2.308863	-0.316743	-15.620980	 0.555886	-0.039847	-8.198845	-13.815130	-5.440806	-64.197540	-0.770484	 0.557219	-71.748940	 2.703136	-1.016026	-41.193610	-34.405830	-15.962800	-51.420590	-2.178446	 1.165278	-56.281570	 2.047442	-1.008361	-52.436280	-20.023530	-10.612620	-59.965550	-0.791533	 0.537530	-68.360370	 4.572385	-1.794259	-42.833780	 55.640530	 48.034080	-66.686580	 0.937751	-0.159806	-19.341420	-1.791264	 0.462082	-28.927770
 0.528336	 0.005364	 0.747020	-80.661480	 38.833810	-178.478400	 11.680180	-0.834951	-4.741016	 1.260180	-0.315633	-13.864260	 2.253809	-0.303113	-15.317500	 0.597792	-0.042024	-8.041909	-13.838560	-5.429159	-64.099550	-0.834352	 0.603815	-71.786580	 2.618375	-0.984757	-41.216270	-34.460410	-15.933220	-51.425950	-2.227427	 1.192620	-56.327210	 1.995241	-0.984077	-52.502300	-20.085390	-10.570220	-60.017740	-0.857702	 0.583345	-68.440970	 4.503539	-1.767826	-42.847190	 55.543970	 48.089070	-66.675330	 0.958729	-0.163856	-19.396550	-1.800151	 0.464235	-28.919980
 0.528017	 0.005324	 0.746723	-80.689670	 39.255680	-178.587400	 11.801980	-0.843841	-4.791611	 1.655711	-0.388906	-13.584760	 2.089718	-0.274637	-14.972750	 0.575035	-0.040155	-7.988071	-13.875490	-5.416412	-63.849660	-1.120196	 0.810367	-71.764160	 2.449037	-0.924871	-41.373040	-34.673630	-15.819240	-51.425570	-2.445680	 1.309923	-56.342580	 1.805256	-0.892557	-52.614880	-20.286280	-10.433780	-60.089520	-1.074780	 0.729365	-68.322940	 4.293006	-1.693761	-43.046920	 55.405220	 48.144070	-66.724540	 1.001397	-0.171101	-19.391290	-1.702612	 0.438176	-28.861800
 0.528093	 0.005295	 0.746803	-80.684910	 39.243790	-178.602300	 11.801980	-0.843846	-4.791610	 1.655712	-0.388909	-13.584760	 2.089727	-0.274638	-14.972750	 0.575023	-0.040155	-7.988064	-13.875490	-5.416413	-63.849660	-1.120196	 0.810362	-71.764160	 2.449023	-0.924870	-41.373050	-34.673630	-15.819250	-51.425580	-2.445680	 1.309917	-56.342560	 1.805248	-0.892550	-52.614890	-20.286290	-10.433770	-60.089530	-1.074777	 0.729376	-68.322940	 4.293006	-1.693758	-43.046900	 55.405220	 48.144070	-66.724540	 1.001401	-0.171099	-19.391280	-1.702616	 0.438172	-28.861820
 0.527786	 0.005118	 0.746478	-80.675060	 39.498640	-178.718800	 11.866500	-0.847921	-4.814841	 1.708526	-0.401193	-13.690480	 2.053734	-0.269436	-14.946730	 0.607646	-0.042232	-7.951238	-13.905460	-5.394339	-63.852550	-1.234720	 0.894333	-71.831640	 2.408636	-0.909710	-41.376860	-34.767370	-15.764530	-51.481320	-2.537928	 1.362617	-56.457220	 1.764597	-0.872481	-52.616180	-20.350480	-10.388070	-60.214980	-1.145235	 0.778675	-68.424270	 4.245095	-1.670732	-42.950800	 55.584320	 48.027120	-66.786260	 1.033486	-0.176203	-19.351740	-1.710972	 0.439875	-28.834790
 0.527724	 0.005038	 0.746251	-80.661820	 39.627030	-178.764900	 11.897240	-0.848523	-4.818274	 1.710400	-0.403283	-13.783240	 2.057745	-0.269844	-14.940340	 0.608465	-0.042233	-7.940810	-13.896100	-5.400637	-63.861820	-1.262449	 0.914561	-71.840810	 2.395350	-0.904384	-41.364120	-34.795100	-15.749230	-51.486600	-2.575212	 1.383282	-56.479470	 1.744891	-0.862434	-52.599990	-20.361950	-10.379740	-60.244470	-1.146065	 0.778682	-68.386630	 4.260639	-1.676039	-42.932050	 55.718450	 47.937680	-66.836300	 1.033074	-0.175938	-19.329220	-1.727450	 0.443603	-28.801620
 0.527617	 0.004974	 0.745745	-80.607440	 39.807510	-178.873100	 11.908940	-0.859682	-4.881802	 1.647304	-0.392674	-13.885940	 2.036038	-0.266307	-14.901890	 0.572856	-0.039760	-7.940661	-13.910500	-5.388869	-63.883240	-1.272515	 0.921205	-71.802420	 2.470983	-0.931996	-41.325640	-34.808040	-15.745790	-51.444270	-2.574030	 1.382048	-56.458570	 1.745966	-0.862180	-52.558870	-20.363610	-10.379420	-60.204080	-1.099565	 0.745388	-68.265110	 4.349656	-1.705953	-42.814850	 55.864160	 47.831650	-66.913200	 0.959943	-0.163758	-19.361910	-1.772161	 0.455446	-28.824340
